<svg xmlns="http://www.w3.org/2000/svg" viewBox="0 0 111.97 39.86"><defs><style>.cls-1,.cls-2{fill:#f15c63;}.cls-2{font-size:37.36px;font-family:GLTatishviliMetal-Bold, GL Tatishvili Metal;font-weight:700;}.cls-3{letter-spacing:-0.04em;}</style></defs><title>Asset 4</title><g id="Layer_2" data-name="Layer 2"><g id="Layer_1-2" data-name="Layer 1"><path class="cls-1" d="M2.72,16.48c.14-.18.25-.37.4-.53a2,2,0,0,1,.36-.29l.66-.5a4,4,0,0,1,1.47-.63c.54-.11,1.07-.26,1.6-.32a5.39,5.39,0,0,1,1.06.06l1.56.17,1.77.18a5.88,5.88,0,0,0,1.62,0,4,4,0,0,1-.11-.44c-.06-.44-.14-.88-.16-1.32a7.19,7.19,0,0,0-.36-2.34A16,16,0,0,1,12,8.84a.82.82,0,0,1,0-.31c0-.19,0-.37,0-.56V7c.14-.25.19-.55.33-.8A6.44,6.44,0,0,1,13,5.27a6.87,6.87,0,0,1,.62-.57l.65-.54A1.17,1.17,0,0,0,14.86,3c0-.2-.15-.27-.36-.18l-.6,0c-.15-.08-.31-.14-.45-.23a.49.49,0,0,1-.14-.23,1.63,1.63,0,0,1-.08-.43c0-.12,0-.25.21-.26a2.21,2.21,0,0,0,.42-.12,3.53,3.53,0,0,1,.46-.15c.12,0,.14-.06.17-.18.06-.29.14-.57.23-.86a.32.32,0,0,1,.2-.16A2.69,2.69,0,0,1,16.43.06a.36.36,0,0,1,.15.17l.26.59a5.52,5.52,0,0,1,.95-.09.84.84,0,0,1,.5.28.3.3,0,0,1-.17.48c-.19.07-.34.24-.57.2,0,0-.15.22-.12.3a1.44,1.44,0,0,1,0,1.08s0,.1,0,.12c.16.21,0,.24-.16.3l-.35.17-.16-.05c-.2.12-.17.31-.14.49a2.5,2.5,0,0,0,.06.38.34.34,0,0,0,.16.21,3,3,0,0,1,1,.8,2,2,0,0,1,.39.69c.17.45.26.94.47,1.37s.21.89.4,1.32a7.19,7.19,0,0,1,.24.94l.12.45.81,2.12.56,1.4.44.54.39.23a4.67,4.67,0,0,0,.53,0l.53-.28a13.7,13.7,0,0,1,2.82-1.33l5.65-1.63a7.59,7.59,0,0,1,1.27-.13c.17,0,.34,0,.51,0a.22.22,0,0,0,.14,0,1.16,1.16,0,0,1,.86-.06.53.53,0,0,0,.37-.12c.26-.21.49-.45.75-.66s.39-.28.59-.43c0,0,0,.05,0,.06a1.66,1.66,0,0,0,0,.7c0,.09,0,.19,0,.29a.49.49,0,0,0,.06.42c.09.12.06.33.08.51l.27,2.1c0,.2,0,.4.08.6s.07.09.11.13l.07,0c0,1,0,2,0,3a14.19,14.19,0,0,1-.19,1.42c0,.16-.13.16-.22.13a4.87,4.87,0,0,1-.74-.23.47.47,0,0,1-.2-.29,2.91,2.91,0,0,1-.08-.66,1.23,1.23,0,0,0-.33-.8c-.32-.42-.66-.83-.94-1.27a1.68,1.68,0,0,1-.21-.7c0-.35-.23-.5-.55-.37-.57.25-1.15.47-1.71.76a5.66,5.66,0,0,0-1.61,1.27c-.29.34-.57.67-.84,1a2,2,0,0,0-.21.47,6.74,6.74,0,0,0-.45,1.78c0,.22,0,.44,0,.66-.07.38-.17.76-.22,1.14a7.18,7.18,0,0,0-.26,2.11c.06.33.16.67.25,1a3.32,3.32,0,0,0,.68,1.16c.09.11.07.3.15.43.17.31.56.93.56.93l-1.58,4s-.4.7-.58,1.05-.5,1-.71,1.45c-.16.34-.25.7-.38,1a6.11,6.11,0,0,1-.27.58.22.22,0,0,1-.17.07,2.84,2.84,0,0,1-1.2-.36.21.21,0,0,1-.1-.19c.05-.34.13-.68.18-1a4.64,4.64,0,0,0,0-.53c0-.43,0-.86,0-1.29s-.12-.6-.16-.9c-.08-.56-.12-1.13-.22-1.69A18.32,18.32,0,0,0,23.59,28a8.48,8.48,0,0,0-.41-.93,1.64,1.64,0,0,1-.05-.32,4.63,4.63,0,0,1-.27-1.29,3.47,3.47,0,0,0-.22-1.09,2.11,2.11,0,0,0-.33-.58.5.5,0,0,0-.74-.08A4.79,4.79,0,0,1,21,24c-.17.09-.36.05-.52.21a2.62,2.62,0,0,1-.57.32l-.77.45a1.06,1.06,0,0,1-.7.17l-.2-.27c-.12-.15-.23-.31-.36-.46a.62.62,0,0,0-.46-.2,1.64,1.64,0,0,1-.73-.23,5.69,5.69,0,0,0-.71-.32c-.24-.12-.46-.28-.69-.41a1.42,1.42,0,0,0-.36-.14,1,1,0,0,0-.54,0,6.66,6.66,0,0,1-1.31.28l-.29,0a3.38,3.38,0,0,0-.17.6,4.33,4.33,0,0,0,0,.72c0,.3.07.6.07.9a21.33,21.33,0,0,1,0,2.4,3,3,0,0,0,.53,2c.64.92,1.24,1.86,1.88,2.78a10.71,10.71,0,0,0,.81.84c.19.21.23.24.32.33a.29.29,0,0,0,.21.11c.1,0,.34.2.16.26,0,0,0,0,.06,0s.22.28.22.19c.16.23.13.38-.12.45s-.64.15-1,.23a.28.28,0,0,0-.29-.31c-.09,0-.18-.14-.25-.23-.25-.32-.49-.65-.73-1s-.28-.46-.42-.69l-.42-.61c-.15-.23-.29-.46-.44-.68-.51-.74-1-1.46-1.54-2.21a1.34,1.34,0,0,1-.33-.79.19.19,0,0,0-.07-.12.49.49,0,0,1-.27-.42c0-.41-.08-.84-.14-1.25s-.13-.86-.24-1.28a11.25,11.25,0,0,0-.39-1.11.57.57,0,0,0-.11-.16c-.13-.16-.27-.31-.39-.47a10.07,10.07,0,0,0-.78-1,1.47,1.47,0,0,0-.83-.51,1.76,1.76,0,0,1-.44-.15.34.34,0,0,0-.47.11,1.25,1.25,0,0,1-.25.3c-.55.37-.76,1-1.16,1.46S5,25,4.56,25.45c-.14.16-.32.28-.45.43s-.19.29-.29.43c-.26.39-.55.76-.78,1.17s-.34.74-.51,1.11-.45.94-.62,1.42a9.61,9.61,0,0,0-.29,1.29c-.07.32-.12.64-.17,1a3.62,3.62,0,0,0,.11,1.6,8.29,8.29,0,0,1,.21,1,1,1,0,0,1,0,.39c0,.15-.15.22-.36.14a.48.48,0,0,0-.29,0A.36.36,0,0,1,.66,35c0-.24,0-.48,0-.72a.27.27,0,0,0-.07-.2,4.23,4.23,0,0,0-.42-.32C0,33.66,0,33.6.06,33.34c0-.05,0-.12,0-.18a1.15,1.15,0,0,1,.16-.45,5.19,5.19,0,0,0,.66-2.14c.23-.92.47-1.84.73-2.75a17.3,17.3,0,0,1,1.12-2.34c.13-.3.21-.62.33-.93s.27-.44.25-.71c0,0,.07,0,.07-.05s.1-.24.07-.34a1.25,1.25,0,0,0-.27-.51c-.25-.24-.19-.55-.3-.81A.42.42,0,0,0,2.71,22a3.48,3.48,0,0,0-.43-.22c-.13-.05-.2,0-.23.15s-.14.33-.16.51,0,.52,0,.78c0,.08,0,.16,0,.24,0,.35,0,.7,0,1.05a5.93,5.93,0,0,1-.07.59c0,.19,0,.39,0,.58a2.32,2.32,0,0,1-.12.47,1.6,1.6,0,0,1-.8-.55,1.82,1.82,0,0,1-.25-.67,7.46,7.46,0,0,1-.13-1.24c0-.5,0-1,0-1.51,0-.71,0-1.41.08-2.12,0-.21.08-.43.1-.64l0-.19.92-1.78M27,26.64l0-.05m-.47-.16c-.28-.26-.54-.52-.83-.76s-.29-.37-.53-.3l-.23.31c-.07.1-.19.2-.2.31a3.54,3.54,0,0,0,0,.86c.05.43.16.85.24,1.28,0,.24.05.48.08.72.06.45.13.91.19,1.36,0,.28.06.57.09.86.08,0,0,.52.11.51s.18-.06.19,0,.15-.19.17-.18c.16-.23,0-.13.21-.4,0,.08.1-.31.12-.23l.38-.71a7.29,7.29,0,0,1,.42-.78,3.74,3.74,0,0,0,.46-.83,1.21,1.21,0,0,0,0-1.05,1.4,1.4,0,0,0-.59-.74m-.82,4v0"/><text class="cls-2" transform="translate(41.63 33.17)">ERE<tspan class="cls-3" x="42.96" y="0">T</tspan><tspan x="54.99" y="0">A</tspan></text></g></g></svg>