<?xml version="1.0" standalone="no"?>
<!DOCTYPE svg PUBLIC "-//W3C//DTD SVG 20010904//EN"
 "http://www.w3.org/TR/2001/REC-SVG-20010904/DTD/svg10.dtd">
<svg version="1.0" xmlns="http://www.w3.org/2000/svg"
 width="396.000000pt" height="396.000000pt" viewBox="0 0 396.000000 396.000000"
 preserveAspectRatio="xMidYMid meet">
<metadata>
Created by potrace 1.14, written by Peter Selinger 2001-2017
</metadata>
<g transform="translate(0.000000,396.000000) scale(0.100000,-0.100000)"
fill="#000000" stroke="none">
<path d="M1990 3083 c-219 -31 -418 -133 -560 -287 l-41 -45 -46 35 c-63 48
-147 89 -235 115 -108 31 -303 35 -423 9 -89 -20 -251 -90 -290 -127 -11 -10
-32 -28 -47 -39 -47 -37 -127 -137 -162 -204 -65 -124 -81 -196 -80 -365 0
-140 2 -156 31 -237 37 -106 80 -180 152 -259 112 -124 271 -209 440 -236 60
-10 223 -10 286 -1 110 16 264 81 330 140 l36 31 67 -67 c178 -179 395 -269
647 -269 131 0 226 17 335 60 120 48 246 134 330 226 l36 38 55 -35 c66 -44
177 -88 284 -112 85 -19 279 -25 369 -11 174 27 316 121 375 247 23 48 26 68
26 160 0 122 -18 175 -83 239 -81 80 -176 121 -433 185 -174 44 -225 62 -282
103 -111 77 -102 230 17 310 26 18 67 38 89 45 64 19 269 16 346 -5 73 -20
178 -64 203 -85 14 -12 18 -11 26 5 15 27 62 145 62 154 0 12 -136 75 -203 94
-78 23 -93 25 -227 31 -250 13 -444 -60 -539 -204 l-29 -44 -30 44 c-145 210
-431 357 -702 362 -58 1 -116 1 -130 -1z m-927 -368 c57 -17 134 -59 185 -102
l33 -28 -27 -64 c-82 -204 -84 -463 -4 -668 l28 -73 -34 -29 c-212 -186 -570
-169 -774 38 -214 217 -210 588 8 796 50 47 158 115 183 115 10 0 20 4 23 9 5
8 114 28 181 34 42 3 138 -10 198 -28z m1994 -546 c47 -20 194 -66 243 -75 92
-18 225 -59 280 -87 114 -57 154 -155 104 -255 -47 -94 -153 -137 -339 -135
-140 1 -234 22 -347 78 -105 53 -103 48 -67 133 35 86 69 229 70 307 1 30 3
55 4 55 2 0 25 -9 52 -21z"/>
<path d="M155 1061 c-121 -73 -60 -244 82 -228 44 5 97 37 62 37 -8 0 -20 -5
-26 -11 -6 -6 -27 -11 -46 -11 -65 0 -116 43 -117 99 0 50 19 81 64 103 41 20
60 19 119 -5 9 -4 17 -3 17 2 0 12 -60 33 -96 33 -16 0 -43 -8 -59 -19z"/>
<path d="M400 1058 c-46 -31 -62 -63 -57 -117 15 -147 234 -146 261 1 6 35
-27 100 -61 119 -45 25 -103 24 -143 -3z m166 -46 c18 -26 20 -39 14 -74 -24
-130 -220 -115 -220 17 0 106 146 146 206 57z"/>
<path d="M663 955 c0 -69 3 -125 7 -125 13 0 16 22 15 113 -1 48 1 87 5 87 3
0 23 -23 45 -51 22 -28 47 -59 55 -68 8 -10 26 -32 39 -50 13 -17 28 -31 32
-31 5 0 9 56 9 125 0 154 -18 170 -22 19 l-3 -106 -31 43 c-18 24 -46 60 -63
79 -18 19 -39 47 -48 63 -33 52 -40 34 -40 -98z"/>
<path d="M984 1046 c-29 -25 -37 -40 -40 -76 -6 -55 9 -86 56 -118 28 -19 44
-23 83 -19 29 2 55 11 65 22 16 17 16 17 -3 10 -108 -41 -186 3 -185 104 1 34
30 68 74 86 44 19 40 19 76 0 40 -21 60 -18 31 4 -16 12 -41 18 -72 18 -40 0
-55 -5 -85 -31z"/>
<path d="M1227 1073 c-2 -5 -4 -61 -4 -125 l0 -118 90 0 c103 0 110 14 9 16
-37 1 -70 2 -73 3 -4 1 -6 24 -5 51 l0 50 70 0 c38 0 66 3 62 8 -4 4 -35 7
-69 8 l-62 1 0 49 0 49 72 0 c40 1 75 4 79 8 4 4 -31 7 -79 7 -47 0 -88 -3
-90 -7z"/>
<path d="M1463 955 c0 -69 4 -125 8 -125 10 0 11 9 11 55 0 30 0 30 54 29 93
-1 147 54 113 115 -21 37 -55 51 -125 51 l-60 0 -1 -125z m124 106 c7 -1 21
-10 31 -21 16 -17 20 -40 13 -81 -2 -15 -61 -30 -102 -27 l-44 3 -1 60 c0 33
1 63 2 66 3 5 44 5 101 0z"/>
<path d="M1678 1071 c8 -5 27 -7 43 -6 16 1 32 -2 36 -8 3 -6 6 -59 5 -119 -1
-65 2 -108 8 -108 10 0 13 57 11 171 -1 62 3 67 57 64 17 -1 32 2 32 6 0 5
-46 9 -102 9 -61 0 -97 -4 -90 -9z"/>
<path d="M2040 1058 c-40 -27 -60 -61 -60 -103 0 -129 187 -172 249 -57 17 32
16 83 -2 117 -32 63 -126 84 -187 43z m130 -13 c114 -59 30 -232 -93 -190 -56
19 -72 41 -72 100 0 57 13 77 67 99 37 16 53 14 98 -9z"/>
<path d="M2303 955 c0 -69 4 -125 8 -125 10 0 11 8 11 68 0 24 5 43 12 43 6 1
34 3 61 4 77 4 77 8 0 14 l-70 6 0 50 0 50 73 -1 c39 0 72 3 72 8 0 4 -37 8
-83 8 l-84 0 0 -125z"/>
<path d="M2634 1053 c-17 -18 -22 -33 -18 -47 9 -31 15 -35 85 -59 55 -19 64
-26 67 -48 2 -14 -3 -31 -10 -36 -22 -18 -75 -22 -103 -7 -31 16 -45 18 -45 6
0 -11 61 -32 93 -32 44 0 76 18 83 45 10 42 -11 70 -65 84 -64 16 -91 36 -84
61 11 42 54 56 111 34 19 -8 32 -9 32 -3 0 14 -45 29 -86 29 -25 0 -42 -8 -60
-27z"/>
<path d="M2894 1008 c-62 -127 -83 -178 -73 -178 6 0 17 16 25 35 l14 35 75 0
75 0 17 -35 c9 -19 20 -35 25 -35 12 0 11 1 -28 87 -58 128 -77 163 -86 163
-4 0 -24 -33 -44 -72z m70 -5 c44 -89 44 -89 -21 -87 -32 1 -61 2 -64 3 -6 1
51 131 58 131 1 0 13 -21 27 -47z"/>
<path d="M3103 955 c0 -69 4 -125 8 -125 10 0 10 0 13 65 l1 50 62 0 c34 0 65
3 69 8 4 4 -24 7 -63 7 l-71 0 2 53 1 52 72 0 c39 0 75 3 79 8 4 4 -33 7 -83
7 l-90 0 0 -125z"/>
<path d="M3333 955 l-2 -125 90 0 c49 0 89 4 89 8 0 4 -32 8 -71 7 -39 0 -74
2 -79 5 -4 3 -7 25 -6 50 l1 45 70 6 c77 6 77 11 0 14 -27 2 -55 3 -61 4 -12
1 -16 90 -5 92 3 1 36 2 73 3 101 2 94 16 -8 16 l-90 0 -1 -125z"/>
<path d="M3535 1070 c3 -5 21 -8 40 -5 19 2 37 0 40 -5 3 -4 5 -58 6 -119 0
-61 5 -111 10 -111 10 0 11 10 11 140 l-1 95 50 0 c46 -1 52 -3 71 -35 12 -19
32 -51 45 -72 16 -24 25 -52 26 -82 0 -25 5 -46 9 -46 4 0 8 6 9 13 0 6 2 28
3 47 1 22 20 63 49 108 49 75 52 82 39 82 -4 0 -27 -32 -51 -70 -23 -39 -47
-68 -52 -65 -5 4 -21 27 -36 53 -48 84 -43 82 -165 82 -69 0 -107 -4 -103 -10z"/>
</g>
</svg>
